HIERARCHY
ROOT Hips
{
    OFFSET 0.000000 0.000000 0.000000
    CHANNELS 6 Xposition Yposition Zposition Zrotation Xrotation Yrotation
    JOINT Spine
    {
        OFFSET -0.000000 0.079523 0.000000
        CHANNELS 3 Zrotation Xrotation Yrotation
        JOINT Spine1
        {
            OFFSET -0.000000 0.192445 0.000000
            CHANNELS 3 Zrotation Xrotation Yrotation
            JOINT Neck
            {
                OFFSET -0.000000 0.191655 0.017423
                CHANNELS 3 Zrotation Xrotation Yrotation
                JOINT Head
                {
                    OFFSET -0.000000 0.135771 -0.019396
                    CHANNELS 3 Zrotation Xrotation Yrotation
                    End Site
                    {
                        OFFSET -0.000000 0.242449 0.000000
                    }
                }
            }
            JOINT LeftShoulder
            {
                OFFSET 0.039141 0.175231 -0.001157
                CHANNELS 3 Zrotation Xrotation Yrotation
                JOINT LeftArm
                {
                    OFFSET 0.104248 0.000000 0.000000
                    CHANNELS 3 Zrotation Xrotation Yrotation
                    JOINT LeftForeArm
                    {
                        OFFSET 0.307569 0.000000 0.000000
                        CHANNELS 3 Zrotation Xrotation Yrotation
                        JOINT LeftHand
                        {
                            OFFSET 0.230447 0.000000 0.000000
                            CHANNELS 3 Zrotation Xrotation Yrotation
                            End Site
                            {
                                OFFSET 0.145469 0.000000 0.000000
                            }
                        }
                    }
                }
            }
            JOINT RightShoulder
            {
                OFFSET -0.038425 0.175231 -0.001157
                CHANNELS 3 Zrotation Xrotation Yrotation
                JOINT RightArm
                {
                    OFFSET -0.104248 0.000000 0.000000
                    CHANNELS 3 Zrotation Xrotation Yrotation
                    JOINT RightForeArm
                    {
                        OFFSET -0.307569 0.000000 0.000000
                        CHANNELS 3 Zrotation Xrotation Yrotation
                        JOINT RightHand
                        {
                            OFFSET -0.230447 0.000000 0.000000
                            CHANNELS 3 Zrotation Xrotation Yrotation
                            End Site
                            {
                                OFFSET -0.145469 0.000000 0.000000
                            }
                        }
                    }
                }
            }
        }
    }
    JOINT LeftUpLeg
    {
        OFFSET 0.096979 0.000000 0.000000
        CHANNELS 3 Zrotation Xrotation Yrotation
        JOINT LeftLeg
        {
            OFFSET -0.000000 -0.427459 0.000000
            CHANNELS 3 Zrotation Xrotation Yrotation
            JOINT LeftFoot
            {
                OFFSET -0.000000 -0.447558 0.000000
                CHANNELS 3 Zrotation Xrotation Yrotation
                JOINT LeftToeBase
                {
                    OFFSET -0.000000 -0.063037 0.145469
                    CHANNELS 3 Zrotation Xrotation Yrotation
                    End Site
                    {
                        OFFSET -0.000000 0.000000 0.038792
                    }
                }
            }
        }
    }
    JOINT RightUpLeg
    {
        OFFSET -0.096979 0.000000 0.000000
        CHANNELS 3 Zrotation Xrotation Yrotation
        JOINT RightLeg
        {
            OFFSET -0.000000 -0.427459 0.000000
            CHANNELS 3 Zrotation Xrotation Yrotation
            JOINT RightFoot
            {
                OFFSET -0.000000 -0.447558 0.000000
                CHANNELS 3 Zrotation Xrotation Yrotation
                JOINT RightToeBase
                {
                    OFFSET -0.000000 -0.063037 0.145469
                    CHANNELS 3 Zrotation Xrotation Yrotation
                    End Site
                    {
                        OFFSET -0.000000 0.000000 0.038792
                    }
                }
            }
        }
    }
}
MOTION
Frames:    12
Frame Time:    0.008333
1.078496    0.919187    -0.851248    0.933500    3.618631    0.542513    -2.391250    -7.274411    -0.155776    2.785929    3.561718    1.615093    -4.942311    15.055053    -0.054027    3.319791    -12.888224    -11.677183    0.910249    -29.404945    -31.844330    -5.766201    0.001215    -0.024170    87.529984    0.230265    0.240337    -133.136642    -2.654347    -36.984314    -21.699301    3.161824    -4.609069    15.198552    4.219588    -5.611608    -45.366840    -11.685309    27.513567    -2.718412    -30.066063    -12.207312    1.524808    -2.523852    -3.962135    -0.465650    7.279621    -7.462184    -6.164868    -5.157361    1.190974    0.000000    0.000000    0.000000    -9.940696    -1.795161    10.948582    5.858134    11.120413    0.702411    11.819765    -12.892978    -17.255678    0.000000    0.000000    0.000000    
1.075509    0.918940    -0.851091    0.937704    3.572594    0.518857    -2.564708    -7.458054    -0.170800    3.075465    3.735811    1.511220    -5.298599    14.822016    -0.069137    3.610779    -12.576157    -11.023342    0.781385    -29.300137    -31.798153    -9.130462    -0.003216    0.175095    93.409515    -3.597421    -3.389648    -135.680984    -7.822241    -37.013062    -21.747717    3.102866    -4.558729    15.227850    4.259991    -5.710266    -47.246994    -13.008564    29.220583    -1.372552    -29.347263    -12.172865    1.667316    -2.497221    -4.118233    -0.405364    7.351070    -7.375692    -6.315130    -5.268591    1.271329    0.000000    0.000000    0.000000    -9.985991    -1.579149    11.237448    6.109251    10.787289    1.210930    11.163044    -12.893961    -17.400331    0.000000    0.000000    0.000000    
1.072353    0.918837    -0.850816    0.909313    3.532909    0.498041    -2.653254    -7.669970    -0.181545    3.265278    3.951125    1.458507    -5.513261    14.668328    -0.079583    3.659789    -12.272957    -10.984290    0.661398    -29.202547    -31.833073    -10.871951    -0.011617    0.377790    97.163376    -7.522526    -6.638324    -137.928268    -12.820325    -37.082024    -22.035849    3.198235    -4.719864    15.562616    3.945269    -5.538961    -48.612728    -14.580333    31.629276    -3.450392    -29.300564    -13.368203    1.857828    -2.440924    -4.126668    -0.332388    7.363183    -7.494661    -6.468521    -5.332201    1.414036    0.000000    0.000000    0.000000    -9.890843    -1.361639    11.518407    6.237466    10.457383    1.554546    11.014812    -13.000516    -17.606163    0.000000    0.000000    0.000000    
1.069210    0.918692    -0.850416    0.908337    3.483151    0.383456    -2.820926    -7.982324    -0.200664    3.559662    4.274784    1.420116    -5.794674    14.730369    -0.080459    3.774191    -12.255747    -10.836895    0.500506    -29.057232    -31.862812    -10.871951    -0.011617    0.377790    97.163376    -7.522526    -6.638324    -137.928268    -12.820325    -37.082024    -22.195913    3.212932    -4.606575    15.730649    3.692501    -5.619337    -50.313950    -16.184534    33.686802    -3.443245    -28.706934    -13.572892    1.978643    -2.379062    -4.087999    -0.232392    7.364559    -7.534598    -6.596639    -5.358067    1.574789    0.000000    0.000000    0.000000    -9.839889    -1.144362    11.829815    6.459088    10.007879    2.108451    10.063243    -13.143295    -18.557198    0.000000    0.000000    0.000000    
1.065765    0.918374    -0.850288    0.907612    3.436983    0.226071    -3.050211    -8.207534    -0.222796    3.907423    4.517443    1.426583    -5.874972    14.731464    -0.081494    3.593774    -12.183550    -10.818191    0.365075    -28.917322    -31.907286    -11.560912    -0.017053    0.527403    101.628769    -15.053959    -12.295088    -142.890701    -22.180420    -37.721779    -22.212942    3.139879    -4.459517    15.746052    3.641542    -5.796092    -52.110397    -17.880430    35.671825    -3.402496    -28.160727    -13.922846    2.188944    -2.340309    -4.139273    -0.229757    7.444578    -7.703527    -6.705223    -5.533987    1.939723    0.000000    0.000000    0.000000    -9.571091    -0.963764    11.948602    6.231460    9.729942    1.874534    10.208957    -13.220069    -18.168072    0.000000    0.000000    0.000000    
1.062471    0.918113    -0.849700    0.861496    3.256151    0.089331    -1.887862    -7.317579    -0.124155    2.232204    4.027256    2.375539    -6.294872    12.717263    -0.201291    4.596056    -10.383596    -11.097130    0.079888    -29.663630    -31.727573    -11.560912    -0.017053    0.527403    102.566925    -21.118458    -16.997663    -145.532013    -28.352205    -38.738422    -21.808794    2.716172    -6.942425    16.293894    3.802764    -4.683060    -53.745224    -20.426949    39.146469    -3.420591    -26.527454    -15.841530    2.399832    -2.082331    -4.125252    -0.143371    7.406209    -7.759102    -6.867071    -5.665324    2.083139    0.000000    0.000000    0.000000    -9.339284    -0.510378    11.758015    6.108993    9.239060    2.059351    9.793167    -13.071990    -17.985266    0.000000    0.000000    0.000000    
1.058695    0.917869    -0.849673    0.882341    3.233168    -0.053029    -1.985082    -7.074182    -0.125760    2.203738    3.891243    2.644925    -6.226587    11.569580    -0.262838    4.541830    -9.235807    -11.140168    0.182580    -30.001364    -31.445400    -11.407929    -0.015725    0.471621    103.263252    -26.112051    -20.806625    -148.718262    -33.970608    -40.122360    -21.453709    2.274977    -7.707201    16.168339    4.153353    -4.442227    -55.401901    -22.487408    41.477367    -3.301734    -25.476807    -16.618793    2.627492    -2.015463    -4.109974    -0.129034    7.429899    -7.541531    -7.073782    -5.746584    1.957689    0.000000    0.000000    0.000000    -9.016167    -0.304518    11.150246    5.756012    8.940406    2.331306    9.495238    -13.015249    -17.606873    0.000000    0.000000    0.000000    
1.055143    0.917565    -0.849488    0.866844    3.167928    -0.154802    -1.992714    -7.141673    -0.127582    2.280298    4.015611    2.701839    -6.555577    11.531273    -0.278970    4.718940    -9.179717    -11.265715    0.019771    -29.931602    -31.488314    -11.407929    -0.015725    0.471621    103.263252    -26.112051    -20.806625    -148.718262    -33.970608    -40.122360    -21.516676    2.220890    -7.834618    16.298559    4.201492    -4.471491    -57.272560    -24.532021    43.421856    -3.083394    -25.535740    -16.480772    2.806623    -2.007472    -4.189636    -0.089619    7.540840    -7.584431    -7.165428    -5.838918    2.234313    0.000000    0.000000    0.000000    -8.541169    -0.074180    10.296017    5.155122    8.760550    2.698832    9.293454    -12.988954    -17.124973    0.000000    0.000000    0.000000    
1.051439    0.917187    -0.849206    0.863499    3.019050    -0.352103    -2.051816    -7.095690    -0.130610    2.441993    4.084047    2.817982    -7.013890    11.451913    -0.303458    5.040580    -9.140102    -10.989522    -0.193581    -29.703823    -31.709911    -18.554062    -0.504706    7.347136    65.860207    -42.109051    -61.451843    -14.327172    11.705356    -13.426037    -21.646481    2.195850    -7.933813    16.440657    4.371713    -4.492934    -59.152302    -26.724720    45.423973    -2.345567    -25.001980    -17.069254    3.038409    -1.792838    -4.257567    -0.065036    7.585457    -7.457500    -7.261660    -6.024640    2.332521    0.000000    0.000000    0.000000    -8.154318    0.274844    9.662917    4.716915    8.443887    3.608620    8.777432    -13.014415    -17.295177    0.000000    0.000000    0.000000    
1.047742    0.916993    -0.849093    0.923307    3.045345    -0.495656    -2.263710    -7.334796    -0.148357    2.700320    4.256895    2.844863    -7.133110    11.409922    -0.311310    4.884159    -9.071993    -10.843606    0.618145    -30.627235    -30.012274    -20.878466    -0.861288    10.095219    55.281536    -44.466091    -75.947098    -11.594618    16.451466    -11.156565    -21.781929    2.208662    -7.886086    16.479755    4.489077    -4.499260    -60.780716    -28.824247    47.324833    -2.553437    -24.386923    -17.429090    3.174949    -1.800920    -4.186889    -0.003907    7.606372    -7.449597    -7.420238    -6.026988    2.398724    0.000000    0.000000    0.000000    -7.941577    0.449008    9.322748    4.580222    8.080440    4.670621    8.070163    -13.048985    -18.076876    0.000000    0.000000    0.000000    
1.044185    0.916869    -0.848838    0.958623    2.992142    -0.741468    -2.328397    -7.399655    -0.153786    2.823790    4.357292    3.000389    -7.467701    11.169245    -0.341979    5.078048    -8.866113    -10.516662    -0.125118    -29.632313    -31.532267    -21.749063    -1.024026    11.083103    58.844719    -47.235397    -75.572739    -12.592323    15.538974    -12.807253    -21.727859    2.046815    -7.940803    16.305006    4.935762    -4.524928    -62.395943    -30.966339    49.161827    -3.657166    -24.275915    -18.408587    3.313372    -1.723201    -4.234766    0.062632    7.670165    -7.507052    -7.554269    -6.093029    2.729411    0.000000    0.000000    0.000000    -7.544479    0.628381    9.038891    4.115314    7.874579    4.799666    8.538293    -13.025969    -17.722923    0.000000    0.000000    0.000000    
1.040641    0.916635    -0.848896    0.956777    3.012479    -0.963009    -2.283661    -7.620380    -0.155331    2.809246    4.642928    3.114727    -7.651264    10.919355    -0.367406    5.094551    -8.719443    -10.348377    -0.205663    -30.119678    -30.715912    -21.749063    -1.024026    11.083103    51.076694    -47.923622    -85.855797    -13.389413    18.611086    -7.060064    -21.759613    1.910974    -7.953565    16.368830    4.936761    -4.503658    -63.754822    -33.258568    51.306057    -3.560091    -23.196531    -18.189287    3.482991    -1.756544    -4.192969    0.019550    7.793872    -6.002580    -7.648838    -6.032270    1.721884    0.000000    0.000000    0.000000    -7.247365    0.738858    8.597884    3.864095    7.600402    5.487067    8.193665    -13.019644    -17.835745    0.000000    0.000000    0.000000    
